<svg width="25" height="24" viewBox="0 0 25 24" fill="none" xmlns="http://www.w3.org/2000/svg">
    <path d="M17.6376 4.02766V2.50106C17.6376 2.09984 17.3086 1.76712 16.9119 1.76712C16.5151 1.76712 16.1861 2.09984 16.1861 2.50106V3.96895H9.8962V2.50106C9.8962 2.09984 9.56719 1.76712 9.17044 1.76712C8.77369 1.76712 8.44468 2.09984 8.44468 2.50106V4.02766C5.83195 4.27231 4.56429 5.84784 4.37076 8.18666C4.3514 8.47045 4.58365 8.70532 4.8546 8.70532H21.2277C21.5083 8.70532 21.7406 8.46067 21.7115 8.18666C21.518 5.84784 20.2504 4.27231 17.6376 4.02766Z" fill="#292D32"/>
    <path d="M20.7504 9.86166H5.33321C4.80324 9.86166 4.36963 10.2896 4.36963 10.8126V16.6705C4.36963 19.5234 5.81499 21.4253 9.18751 21.4253H16.8961C20.2686 21.4253 21.714 19.5234 21.714 16.6705V10.8126C21.714 10.2896 21.2804 9.86166 20.7504 9.86166ZM10.3534 17.8212C10.2571 17.9068 10.1511 17.9733 10.0355 18.0209C9.91983 18.0684 9.79456 18.097 9.6693 18.097C9.54403 18.097 9.41877 18.0684 9.30314 18.0209C9.18751 17.9733 9.08152 17.9068 8.98516 17.8212C8.81172 17.6405 8.70572 17.3933 8.70572 17.146C8.70572 16.8988 8.81172 16.6515 8.98516 16.4708C9.08152 16.3852 9.18751 16.3187 9.30314 16.2711C9.5344 16.176 9.8042 16.176 10.0355 16.2711C10.1511 16.3187 10.2571 16.3852 10.3534 16.4708C10.5269 16.6515 10.6329 16.8988 10.6329 17.146C10.6329 17.3933 10.5269 17.6405 10.3534 17.8212ZM10.5558 14.179C10.5076 14.2931 10.4402 14.3977 10.3534 14.4928C10.2571 14.5784 10.1511 14.645 10.0355 14.6925C9.91983 14.7401 9.79456 14.7686 9.6693 14.7686C9.54403 14.7686 9.41877 14.7401 9.30314 14.6925C9.18751 14.645 9.08152 14.5784 8.98516 14.4928C8.89844 14.3977 8.83099 14.2931 8.78281 14.179C8.73463 14.0649 8.70572 13.9413 8.70572 13.8177C8.70572 13.694 8.73463 13.5704 8.78281 13.4563C8.83099 13.3422 8.89844 13.2376 8.98516 13.1425C9.08152 13.0569 9.18751 12.9903 9.30314 12.9428C9.5344 12.8477 9.8042 12.8477 10.0355 12.9428C10.1511 12.9903 10.2571 13.0569 10.3534 13.1425C10.4402 13.2376 10.5076 13.3422 10.5558 13.4563C10.604 13.5704 10.6329 13.694 10.6329 13.8177C10.6329 13.9413 10.604 14.0649 10.5558 14.179ZM13.726 14.4928C13.6296 14.5784 13.5236 14.645 13.408 14.6925C13.2923 14.7401 13.1671 14.7686 13.0418 14.7686C12.9166 14.7686 12.7913 14.7401 12.6757 14.6925C12.56 14.645 12.454 14.5784 12.3577 14.4928C12.1842 14.3122 12.0782 14.0649 12.0782 13.8177C12.0782 13.5704 12.1842 13.3232 12.3577 13.1425C12.454 13.0569 12.56 12.9903 12.6757 12.9428C12.9069 12.8382 13.1767 12.8382 13.408 12.9428C13.5236 12.9903 13.6296 13.0569 13.726 13.1425C13.8994 13.3232 14.0054 13.5704 14.0054 13.8177C14.0054 14.0649 13.8994 14.3122 13.726 14.4928Z" fill="#292D32"/>
</svg>