<svg width="177" height="59" viewBox="0 0 177 59" fill="none" xmlns="http://www.w3.org/2000/svg">
<g clip-path="url(#clip0_127_705)">
<path d="M62.8463 22.5227C64.9662 25.7406 65.9562 29.5588 65.6637 33.3883C65.371 37.2176 63.8119 40.8453 61.227 43.7118L49.6209 35.7457L45.6135 32.9972L62.1146 22.9705L62.8463 22.5227Z" fill="url(#paint0_linear_127_705)"/>
<path d="M20.844 9.75754L19.4564 18.4316C18.9056 17.831 18.1942 17.3965 17.4042 17.1786C16.6144 16.9606 15.7782 16.9679 14.9924 17.1997C14.2064 17.4315 13.5029 17.8784 12.9629 18.4885C12.4229 19.0988 12.0685 19.8476 11.9405 20.6485C11.8126 21.4495 11.9164 22.2698 12.2399 23.0149C12.5634 23.76 13.0935 24.3994 13.7688 24.8594C14.4443 25.3193 15.2374 25.5811 16.0569 25.6143C16.8763 25.6477 17.6885 25.4512 18.3997 25.0474L14.329 50.475C11.3189 48.9295 8.75515 47.4443 7.68055 46.3995L5.84835 44.6162C4.15571 42.9841 2.81055 41.0334 1.89209 38.8794C0.973648 36.7253 0.500488 34.4113 0.500488 32.0736C0.500488 29.736 0.973648 27.422 1.89209 25.2679C2.81055 23.1138 4.15571 21.1632 5.84835 19.5311L15.8791 9.78246L20.844 9.75754Z" fill="url(#paint1_linear_127_705)"/>
<path d="M20.844 9.75754L19.4564 18.4316C18.9056 17.831 18.1942 17.3965 17.4042 17.1786C16.6144 16.9606 15.7782 16.9679 14.9924 17.1997C14.2064 17.4315 13.5029 17.8784 12.9629 18.4885C12.4229 19.0988 12.0685 19.8476 11.9405 20.6485C11.8126 21.4495 11.9164 22.2698 12.2399 23.0149C12.5634 23.76 13.0935 24.3994 13.7688 24.8594C14.4443 25.3193 15.2374 25.5811 16.0569 25.6143C16.8763 25.6477 17.6885 25.4512 18.3997 25.0474L14.329 50.475C11.3189 48.9295 8.75515 47.4443 7.68055 46.3995L5.84835 44.6162C4.15571 42.9841 2.81055 41.0334 1.89209 38.8794C0.973648 36.7253 0.500488 34.4113 0.500488 32.0736C0.500488 29.736 0.973648 27.422 1.89209 25.2679C2.81055 23.1138 4.15571 21.1632 5.84835 19.5311L15.8791 9.78246L20.844 9.75754Z" fill="url(#paint2_linear_127_705)"/>
<path d="M29.4828 30.017V56.3413L28.7243 57.1161C26.3629 56.1236 19.6488 53.2054 14.3293 50.4746L18.3977 25.0446C18.6206 24.9184 18.8317 24.7729 19.0285 24.6099L28.087 28.1115C28.8934 28.4217 29.4828 29.1819 29.4828 30.017Z" fill="url(#paint3_linear_127_705)"/>
<path d="M62.7286 22.341L62.1149 22.9702L49.6236 35.7488L36.7276 48.9314V30.0169C36.7276 29.1722 37.316 28.4216 38.1232 28.1113L47.1907 24.6097C47.9713 25.2619 48.961 25.6179 49.9828 25.6143C50.8209 25.616 51.6413 25.3781 52.3458 24.9296C53.0504 24.4811 53.6088 23.8409 53.9539 23.086C54.2992 22.3311 54.4164 21.4937 54.2917 20.6744C54.1669 19.8552 53.8054 19.0891 53.2507 18.4682C52.696 17.8473 51.9715 17.398 51.1647 17.1745C50.3578 16.951 49.5029 16.9626 48.7026 17.2082C47.9022 17.4536 47.1908 17.9225 46.6537 18.5584C46.1165 19.1942 45.7766 19.97 45.6747 20.7923L36.8535 24.1999C35.6615 24.6617 34.3947 24.9068 33.1144 24.9232C31.8346 24.902 30.5687 24.6572 29.3752 24.1999L20.554 20.7923C20.4454 19.9116 20.0618 19.0863 19.4567 18.4311L20.8442 9.75943L28.5981 11.0292C28.1618 11.7552 27.9113 12.5754 27.8682 13.4188C27.8251 14.262 27.9908 15.1031 28.3509 15.8688C28.7111 16.6344 29.2546 17.3017 29.9345 17.8127C30.6145 18.3235 31.4104 18.6627 32.2528 18.8008C33.0954 18.9388 33.9594 18.8715 34.7696 18.6048C35.5799 18.338 36.3122 17.8796 36.9029 17.2697C37.4934 16.6599 37.9247 15.9165 38.159 15.1046C38.3933 14.2927 38.4238 13.4363 38.2476 12.6101L56.2883 15.5652L60.3704 19.5329C61.2514 20.3868 62.0417 21.3278 62.7286 22.341Z" fill="url(#paint4_linear_127_705)"/>
<path d="M29.4828 30.017V56.3413L28.7243 57.1161C26.3629 56.1236 19.6488 53.2054 14.3293 50.4746L18.3977 25.0446C18.6206 24.9184 18.8317 24.7729 19.0285 24.6099L28.087 28.1115C28.8934 28.4217 29.4828 29.1819 29.4828 30.017Z" fill="url(#paint5_linear_127_705)"/>
<path d="M62.7286 22.341L62.1149 22.9702L49.6236 35.7488L36.7276 48.9314V30.0169C36.7276 29.1722 37.316 28.4216 38.1232 28.1113L47.1907 24.6097C47.9713 25.2619 48.961 25.6179 49.9828 25.6143C50.8209 25.616 51.6413 25.3781 52.3458 24.9296C53.0504 24.4811 53.6088 23.8409 53.9539 23.086C54.2992 22.3311 54.4164 21.4937 54.2917 20.6744C54.1669 19.8552 53.8054 19.0891 53.2507 18.4682C52.696 17.8473 51.9715 17.398 51.1647 17.1745C50.3578 16.951 49.5029 16.9626 48.7026 17.2082C47.9022 17.4536 47.1908 17.9225 46.6537 18.5584C46.1165 19.1942 45.7766 19.97 45.6747 20.7923L36.8535 24.1999C35.6615 24.6617 34.3947 24.9068 33.1144 24.9232C31.8346 24.902 30.5687 24.6572 29.3752 24.1999L20.554 20.7923C20.4454 19.9116 20.0618 19.0863 19.4567 18.4311L20.8442 9.75943L28.5981 11.0292C28.1618 11.7552 27.9113 12.5754 27.8682 13.4188C27.8251 14.262 27.9908 15.1031 28.3509 15.8688C28.7111 16.6344 29.2546 17.3017 29.9345 17.8127C30.6145 18.3235 31.4104 18.6627 32.2528 18.8008C33.0954 18.9388 33.9594 18.8715 34.7696 18.6048C35.5799 18.338 36.3122 17.8796 36.9029 17.2697C37.4934 16.6599 37.9247 15.9165 38.159 15.1046C38.3933 14.2927 38.4238 13.4363 38.2476 12.6101L56.2883 15.5652L60.3704 19.5329C61.2514 20.3868 62.0417 21.3278 62.7286 22.341Z" fill="url(#paint6_linear_127_705)"/>
<path d="M56.2884 15.5628L38.2479 12.6076C38.029 11.5858 37.5037 10.6529 36.7403 9.93084C35.9769 9.20882 35.011 8.73123 33.9689 8.56049C32.9266 8.38975 31.8565 8.53379 30.8984 8.97378C29.9402 9.41378 29.1387 10.1293 28.5983 11.0268L20.8444 9.75697L46.7219 6.26581L56.2884 15.5628Z" fill="url(#paint7_linear_127_705)"/>
<path d="M56.2884 15.5628L38.2479 12.6076C38.029 11.5858 37.5037 10.6529 36.7403 9.93084C35.9769 9.20882 35.011 8.73123 33.9689 8.56049C32.9266 8.38975 31.8565 8.53379 30.8984 8.97378C29.9402 9.41378 29.1387 10.1293 28.5983 11.0268L20.8444 9.75697L46.7219 6.26581L56.2884 15.5628Z" fill="url(#paint8_linear_127_705)"/>
<path d="M28.7242 57.1169L29.4825 56.3416V57.4314C29.346 57.3768 29.0868 57.2698 28.7242 57.1169Z" fill="url(#paint9_linear_127_705)"/>
<path d="M61.2304 43.7123C60.9535 44.0209 60.6636 44.3223 60.3606 44.6165L58.5285 46.3998C55.2616 49.5735 38.2556 56.821 36.7275 57.4311V48.9322L49.6211 35.7462L62.1148 22.971L62.7309 22.3417C62.7725 22.402 62.8122 22.4622 62.8521 22.5234C64.9717 25.7414 65.9614 29.5599 65.6683 33.3892C65.3753 37.2185 63.8158 40.8462 61.2304 43.7123Z" fill="url(#paint10_linear_127_705)"/>
<path d="M28.7242 57.1169L29.4825 56.3416V57.4314C29.346 57.3768 29.0868 57.2698 28.7242 57.1169Z" fill="url(#paint11_linear_127_705)"/>
<path d="M61.2304 43.7123C60.9535 44.0209 60.6636 44.3223 60.3606 44.6165L58.5285 46.3998C55.2616 49.5735 38.2556 56.821 36.7275 57.4311V48.9322L49.6211 35.7462L62.1148 22.971L62.7309 22.3417C62.7725 22.402 62.8122 22.4622 62.8521 22.5234C64.9717 25.7414 65.9614 29.5599 65.6683 33.3892C65.3753 37.2185 63.8158 40.8462 61.2304 43.7123Z" fill="url(#paint12_linear_127_705)"/>
<path d="M20.8435 9.75693L15.8785 9.78184L19.6917 6.07529L20.8435 9.75693Z" fill="url(#paint13_linear_127_705)"/>
<path d="M20.8435 9.75693L15.8785 9.78184L19.6917 6.07529L20.8435 9.75693Z" fill="url(#paint14_linear_127_705)"/>
<path d="M46.7212 6.26593L20.8438 9.75711L19.692 6.07546L20.3756 5.41163C23.8986 1.9944 28.4944 0.153974 33.1091 0.107361C37.7237 0.153974 42.3196 1.9944 45.8426 5.41163L46.7212 6.26593Z" fill="url(#paint15_linear_127_705)"/>
<path d="M46.7212 6.26593L20.8438 9.75711L19.692 6.07546L20.3756 5.41163C23.8986 1.9944 28.4944 0.153974 33.1091 0.107361C37.7237 0.153974 42.3196 1.9944 45.8426 5.41163L46.7212 6.26593Z" fill="url(#paint16_linear_127_705)"/>
<path d="M86.996 11.3742H83.9673V30.0564H86.996V11.3742Z" fill="#E8EBF5"/>
<path d="M94.8677 30.0556H97.8973V14.0118L103.48 14.04V11.3742H89.3224V14.04L94.8677 14.0118V30.0556Z" fill="#E8EBF5"/>
<path d="M115.502 23.3423H118.806C119.739 23.3538 120.666 23.1947 121.54 22.8729C122.311 22.5857 123.015 22.1484 123.611 21.5871C124.181 21.0467 124.63 20.3943 124.93 19.6719C125.247 18.923 125.406 18.1178 125.396 17.306C125.402 16.5061 125.254 15.7125 124.958 14.968C124.675 14.2592 124.245 13.6167 123.696 13.0818C123.121 12.5278 122.435 12.0991 121.682 11.8232C120.885 11.5138 119.983 11.3635 118.977 11.3635H112.474V30.0457H115.502L115.502 23.3423ZM115.492 14.039H118.968C120.078 14.039 120.914 14.3299 121.493 14.9231C122.073 15.5161 122.366 16.3126 122.366 17.3075C122.366 18.3587 122.053 19.185 121.417 19.7861C120.78 20.3872 119.917 20.687 118.796 20.687H115.492V14.039Z" fill="#E8EBF5"/>
<path d="M135.1 11.3742H132.011L125.117 30.0556H128.26L129.886 25.4562H137.202L138.848 30.0556H141.992L135.1 11.3742ZM130.827 22.874L132.231 18.9142L133.524 14.4829H133.581L134.872 18.9142L136.268 22.8756L130.827 22.874Z" fill="#E8EBF5"/>
<path d="M156.733 20.4609C157.483 19.5037 157.853 18.3858 157.853 17.0903C157.861 16.3242 157.711 15.5642 157.415 14.8561C157.125 14.1732 156.695 13.5572 156.152 13.047C155.562 12.5034 154.862 12.0876 154.101 11.8262C153.212 11.5218 152.277 11.3725 151.337 11.385H144.414V30.0648H147.443V22.921H150.73L154.935 30.0648H158.183L153.729 22.4701C154.984 22.0755 155.98 21.4092 156.733 20.4609ZM147.446 20.2447V14.0395H151.348C152.506 14.0395 153.37 14.3209 153.949 14.8754C154.528 15.4299 154.823 16.1709 154.823 17.0903C154.823 18.0482 154.519 18.8182 153.883 19.3904C153.247 19.9627 152.383 20.2447 151.262 20.2447H147.446Z" fill="#E8EBF5"/>
<path d="M164.127 11.3742H161.099V30.0564H164.127V11.3742Z" fill="#E8EBF5"/>
<path d="M176.158 30.055L167.973 20.132L175.911 11.3824H172.436L165.2 19.334V21.0522L172.569 30.055H176.158Z" fill="#E8EBF5"/>
<path d="M85.9141 41.2364C84.7557 41.1521 84.433 40.8233 84.433 40.2415C84.433 39.3494 85.0881 39.1051 86.1328 39.1051C86.6204 39.1051 87.3001 39.1991 87.5658 39.3212L87.7373 38.786C87.2112 38.6428 86.6686 38.5671 86.123 38.561C84.6891 38.561 83.7778 39.011 83.7778 40.2487C83.7778 41.3095 84.4136 41.6848 85.819 41.7885C86.9773 41.873 87.3001 42.3327 87.3001 42.9056C87.3001 43.7977 86.588 44.0412 85.5531 44.0412C85.0971 44.0412 84.433 43.9608 84.0721 43.8259L83.9007 44.3611C84.4416 44.5125 85.0006 44.5915 85.5629 44.5958C86.9871 44.5958 87.9365 44.1353 87.9365 42.9081C87.9365 41.8464 87.3195 41.349 85.9141 41.2364Z" fill="#E8EBF5"/>
<path d="M93.2065 38.7107H88.535V39.2089H90.5672V44.4939H91.1841V39.2089H93.2065V38.7107Z" fill="#E8EBF5"/>
<path d="M94.9832 38.7107C94.1761 40.6443 93.4542 42.5595 92.7797 44.4931H93.3779C93.5778 43.8831 93.777 43.3012 93.9859 42.7098H96.831C97.0683 43.3382 97.3186 43.9393 97.5341 44.4931H98.2176C97.5055 42.8857 96.679 40.6627 96.0148 38.7107H94.9832ZM94.1761 42.2123C94.537 41.2165 94.9451 40.2128 95.3629 39.18H95.619C95.9441 40.1846 96.3025 41.2358 96.6635 42.2123H94.1761Z" fill="#E8EBF5"/>
<path d="M101.715 41.9122C103.006 41.9122 103.405 41.1985 103.405 40.3853C103.405 39.5013 103.044 38.7144 101.744 38.7144H99.1318V44.4968H99.7398V41.9869H100.87C101.306 41.9869 102.075 42.8791 103.006 44.4936H103.766C102.873 43.0294 102.133 42.0529 101.715 41.9122ZM99.7301 41.4614V39.2111L101.744 39.2015C102.379 39.2015 102.73 39.6241 102.73 40.3748C102.73 41.0418 102.379 41.4638 101.696 41.4638L99.7301 41.4614Z" fill="#E8EBF5"/>
<path d="M103.993 39.2089H106.025V44.4939H106.642L106.633 39.2089H108.656V38.7107H103.993V39.2089Z" fill="#E8EBF5"/>
<path d="M112.292 43.415V38.4956H111.751V43.443C111.751 44.0531 111.931 44.3351 112.282 44.663L112.699 44.3158C112.396 44.0152 112.301 43.8183 112.301 43.415H112.292Z" fill="#E8EBF5"/>
<path d="M115.425 40.1946C114.125 40.1946 113.508 40.6769 113.508 42.3822C113.508 44.0876 114.115 44.6165 115.425 44.6165C116.736 44.6165 117.353 44.1005 117.353 42.3822C117.353 40.664 116.745 40.1946 115.425 40.1946ZM115.435 44.119C114.438 44.119 114.115 43.7622 114.115 42.4007C114.115 40.9646 114.44 40.6832 115.435 40.6921C116.43 40.701 116.764 40.9742 116.764 42.4007C116.764 43.7622 116.432 44.119 115.438 44.119H115.435Z" fill="#E8EBF5"/>
<path d="M120.457 40.7114C120.813 40.7041 121.166 40.7711 121.493 40.9083L121.673 40.4012C121.284 40.2733 120.877 40.2038 120.467 40.1946C119.157 40.1946 118.416 40.6769 118.416 42.3822C118.416 44.0876 119.148 44.6165 120.467 44.6165C120.88 44.6102 121.289 44.5307 121.673 44.3818L121.493 43.8842C121.166 44.0241 120.814 44.0976 120.457 44.1005C119.471 44.1005 119.015 43.7622 119.015 42.4007C119.015 40.9742 119.471 40.7114 120.457 40.7114Z" fill="#E8EBF5"/>
<path d="M123.943 40.1751C123.467 40.1789 122.994 40.2484 122.538 40.3817L122.7 40.8888C123.033 40.7473 123.513 40.691 123.92 40.691C124.906 40.691 125.172 40.9072 125.172 41.9399C124.777 41.8493 124.372 41.805 123.967 41.8082C123.017 41.8082 122.286 42.0059 122.286 43.1977C122.286 44.2779 122.789 44.6058 124.005 44.6058C124.536 44.6058 125.258 44.4844 125.712 44.2779V41.7993C125.709 40.532 125.177 40.1751 123.943 40.1751ZM125.167 43.921C124.801 44.0447 124.416 44.1079 124.029 44.1083C123.146 44.1083 122.899 43.9861 122.899 43.1511C122.899 42.3812 123.184 42.2871 124.029 42.2871C124.412 42.2823 124.793 42.3201 125.167 42.3997V43.921Z" fill="#E8EBF5"/>
<path d="M127.532 38.4956H126.982V43.443C126.982 44.0531 127.162 44.3351 127.513 44.663L127.93 44.3158C127.626 44.0152 127.531 43.8183 127.531 43.415L127.532 38.4956Z" fill="#E8EBF5"/>
<path d="M136.609 41.1608H136.049C136.048 41.7294 135.876 42.2847 135.555 42.7569C134.816 41.7121 134.398 41.443 133.979 41.3955C135.037 41.3024 135.223 40.6634 135.223 39.9779C135.223 39.0487 134.672 38.5698 133.382 38.5698C132.091 38.5698 131.54 39.0954 131.54 40.0253C131.54 40.7108 131.587 41.3208 132.642 41.4148C131.529 41.4614 131.131 42.1654 131.131 42.9538C131.131 44.2398 131.852 44.6062 133.211 44.6062C134.313 44.6062 134.778 44.3153 135.499 43.6305C135.679 43.8934 135.869 44.1843 136.04 44.4937H136.724C136.42 43.9963 136.155 43.5646 135.889 43.1886C136.354 42.5979 136.629 41.8745 136.609 41.1608ZM132.175 40.0501C132.175 39.3558 132.489 39.0737 133.391 39.0737C134.292 39.0737 134.625 39.3646 134.625 40.0598C134.625 40.8298 134.16 41.1489 133.324 41.1489C132.489 41.1489 132.175 40.8233 132.175 40.0501ZM133.22 44.1055C132.109 44.1055 131.786 43.768 131.786 42.8856C131.786 41.9653 132.28 41.6367 133.305 41.6367C133.999 41.6367 134.55 42.2185 135.223 43.195C134.588 43.8837 134.207 44.1087 133.22 44.1087V44.1055Z" fill="#E8EBF5"/>
<path d="M142.24 41.8742H143.769V43.9583C143.384 44.0501 142.989 44.0976 142.593 44.0997C141.111 44.0997 140.56 43.6769 140.56 41.5649C140.56 39.4528 141.111 39.1144 142.593 39.1144C143.047 39.1144 143.674 39.1989 144.026 39.3298L144.216 38.8043C143.683 38.6602 143.135 38.5845 142.582 38.5792C140.769 38.5792 139.905 39.1892 139.905 41.5528C139.905 43.9164 140.769 44.6132 142.582 44.6132C143.105 44.6132 143.911 44.5666 144.371 44.4252V41.3953H142.244L142.24 41.8742Z" fill="#E8EBF5"/>
<path d="M148.241 38.5698C146.427 38.5698 145.593 39.2176 145.593 41.574C145.593 43.9681 146.418 44.6158 148.241 44.6062C150.064 44.5966 150.9 43.9681 150.9 41.574C150.9 39.2176 150.065 38.5698 148.241 38.5698ZM148.231 44.0903C146.75 44.0903 146.237 43.608 146.237 41.5933C146.237 39.4715 146.75 39.077 148.231 39.077C149.732 39.077 150.254 39.4715 150.254 41.5933C150.254 43.6112 149.732 44.0903 148.231 44.0903Z" fill="#E8EBF5"/>
<path d="M157.984 40.5131C157.529 40.3065 156.787 40.1852 156.277 40.1852C154.967 40.1852 154.36 40.6633 154.36 42.372C154.36 44.0806 154.957 44.6061 156.277 44.6061C156.885 44.6061 157.237 44.4278 157.445 44.259C157.445 45.3761 156.885 45.6583 155.9 45.6583C155.597 45.6583 154.99 45.5546 154.696 45.4171L154.533 45.9331C154.847 46.0648 155.54 46.1741 155.9 46.1741C157.22 46.1741 157.999 45.7329 157.999 44.1843H157.988L157.984 40.5131ZM157.453 43.4988C157.453 43.8933 156.911 44.0999 156.285 44.0999C155.288 44.0999 154.964 43.7615 154.964 42.4C154.964 40.9639 155.29 40.7011 156.285 40.7011C156.681 40.698 157.075 40.7582 157.453 40.8796V43.4988Z" fill="#E8EBF5"/>
<path d="M159.82 38.4956H159.27V43.443C159.27 44.0531 159.45 44.3351 159.801 44.663L160.217 44.3158C159.914 44.0152 159.82 43.8183 159.82 43.415V38.4956Z" fill="#E8EBF5"/>
<path d="M162.941 40.1946C161.63 40.1946 161.022 40.6769 161.022 42.3822C161.022 44.0876 161.63 44.6165 162.941 44.6165C164.251 44.6165 164.868 44.1005 164.868 42.3822C164.868 40.664 164.26 40.1946 162.941 40.1946ZM162.95 44.119C161.953 44.119 161.63 43.7622 161.63 42.4007C161.63 40.9646 161.956 40.6832 162.95 40.6921C163.943 40.701 164.28 40.9742 164.28 42.4007C164.28 43.7622 163.947 44.119 162.95 44.119Z" fill="#E8EBF5"/>
<path d="M167.764 40.1943C167.155 40.1943 166.805 40.3631 166.595 40.5326V38.505H166.046V44.2786C166.5 44.4852 167.241 44.6065 167.752 44.6065C169.062 44.6065 169.671 44.1242 169.671 42.4101C169.671 40.6958 169.074 40.1854 167.764 40.1943ZM167.753 44.1002C167.357 44.1033 166.963 44.0431 166.586 43.9218V41.2929C166.586 40.908 167.127 40.7014 167.753 40.7014C168.751 40.7014 169.074 41.0397 169.074 42.4004C169.074 43.8181 168.742 44.1002 167.753 44.1002Z" fill="#E8EBF5"/>
<path d="M172.35 40.1751C171.874 40.1789 171.402 40.2484 170.944 40.3817L171.107 40.8888C171.438 40.7473 171.92 40.691 172.322 40.691C173.31 40.691 173.575 40.9072 173.575 41.9399C173.181 41.8493 172.776 41.8051 172.369 41.8082C171.42 41.8082 170.689 42.0059 170.689 43.1977C170.689 44.2779 171.192 44.6058 172.407 44.6058C172.94 44.6058 173.661 44.4844 174.115 44.2779V41.7993C174.116 40.532 173.583 40.1751 172.35 40.1751ZM173.575 43.921C173.208 44.0445 172.824 44.1078 172.437 44.1083C171.554 44.1083 171.306 43.9861 171.306 43.1511C171.306 42.3812 171.592 42.2871 172.437 42.2871C172.819 42.2825 173.202 42.3202 173.575 42.3997V43.921Z" fill="#E8EBF5"/>
<path d="M175.939 43.415V38.4956H175.389V43.443C175.389 44.0531 175.569 44.3351 175.921 44.663L176.337 44.3158C176.034 44.0152 175.939 43.8183 175.939 43.415Z" fill="#E8EBF5"/>
</g>
<defs>
<linearGradient id="paint0_linear_127_705" x1="49.9209" y1="41.8167" x2="72.4916" y2="18.988" gradientUnits="userSpaceOnUse">
<stop stop-color="#A9D906"/>
<stop offset="1" stop-color="#93CF07"/>
</linearGradient>
<linearGradient id="paint1_linear_127_705" x1="-12.5637" y1="57.3987" x2="34.0103" y2="10.2923" gradientUnits="userSpaceOnUse">
<stop stop-color="#86C804"/>
<stop offset="1" stop-color="#B3DF07"/>
</linearGradient>
<linearGradient id="paint2_linear_127_705" x1="-12.5637" y1="57.3987" x2="34.0103" y2="10.2923" gradientUnits="userSpaceOnUse">
<stop stop-color="#86C804"/>
<stop offset="1" stop-color="#B3DF07"/>
</linearGradient>
<linearGradient id="paint3_linear_127_705" x1="6.34133" y1="58.1055" x2="32.2205" y2="31.9305" gradientUnits="userSpaceOnUse">
<stop stop-color="#83C503"/>
<stop offset="1" stop-color="#9AD203"/>
</linearGradient>
<linearGradient id="paint4_linear_127_705" x1="5828.71" y1="22632.4" x2="24112.5" y2="2434.97" gradientUnits="userSpaceOnUse">
<stop stop-color="#83C503"/>
<stop offset="1" stop-color="#9AD203"/>
</linearGradient>
<linearGradient id="paint5_linear_127_705" x1="6.34133" y1="58.1055" x2="32.2205" y2="31.9305" gradientUnits="userSpaceOnUse">
<stop stop-color="#83C503"/>
<stop offset="1" stop-color="#9AD203"/>
</linearGradient>
<linearGradient id="paint6_linear_127_705" x1="5828.71" y1="22632.4" x2="24112.5" y2="2434.97" gradientUnits="userSpaceOnUse">
<stop stop-color="#83C503"/>
<stop offset="1" stop-color="#9AD203"/>
</linearGradient>
<linearGradient id="paint7_linear_127_705" x1="31.1735" y1="19.9693" x2="47.8791" y2="3.0718" gradientUnits="userSpaceOnUse">
<stop stop-color="#B0DB03"/>
<stop offset="1" stop-color="#9BD302"/>
</linearGradient>
<linearGradient id="paint8_linear_127_705" x1="31.1735" y1="19.9693" x2="47.8791" y2="3.0718" gradientUnits="userSpaceOnUse">
<stop stop-color="#B0DB03"/>
<stop offset="1" stop-color="#9BD302"/>
</linearGradient>
<linearGradient id="paint9_linear_127_705" x1="28.9868" y1="57.3768" x2="29.9167" y2="56.4373" gradientUnits="userSpaceOnUse">
<stop stop-color="#77C205"/>
<stop offset="1" stop-color="#8CCD05"/>
</linearGradient>
<linearGradient id="paint10_linear_127_705" x1="13063" y1="25177.9" x2="28946.9" y2="12054.5" gradientUnits="userSpaceOnUse">
<stop stop-color="#77C205"/>
<stop offset="1" stop-color="#8CCD05"/>
</linearGradient>
<linearGradient id="paint11_linear_127_705" x1="28.9868" y1="57.3768" x2="29.9167" y2="56.4373" gradientUnits="userSpaceOnUse">
<stop stop-color="#77C205"/>
<stop offset="1" stop-color="#8CCD05"/>
</linearGradient>
<linearGradient id="paint12_linear_127_705" x1="13063" y1="25177.9" x2="28946.9" y2="12054.5" gradientUnits="userSpaceOnUse">
<stop stop-color="#77C205"/>
<stop offset="1" stop-color="#8CCD05"/>
</linearGradient>
<linearGradient id="paint13_linear_127_705" x1="16.9377" y1="11.1762" x2="21.8166" y2="6.24165" gradientUnits="userSpaceOnUse">
<stop stop-color="#C3EA09"/>
<stop offset="1" stop-color="#A1D808"/>
</linearGradient>
<linearGradient id="paint14_linear_127_705" x1="16.9377" y1="11.1762" x2="21.8166" y2="6.24165" gradientUnits="userSpaceOnUse">
<stop stop-color="#C3EA09"/>
<stop offset="1" stop-color="#A1D808"/>
</linearGradient>
<linearGradient id="paint15_linear_127_705" x1="6147.77" y1="2423.16" x2="8182.46" y2="-3276.23" gradientUnits="userSpaceOnUse">
<stop stop-color="#A9D906"/>
<stop offset="1" stop-color="#93CF07"/>
</linearGradient>
<linearGradient id="paint16_linear_127_705" x1="6147.77" y1="2423.16" x2="8182.46" y2="-3276.23" gradientUnits="userSpaceOnUse">
<stop stop-color="#A9D906"/>
<stop offset="1" stop-color="#93CF07"/>
</linearGradient>
<clipPath id="clip0_127_705">
<rect width="175.838" height="57.9502" fill="white" transform="translate(0.500488 0.107361)"/>
</clipPath>
</defs>
</svg>
