<svg width="177" height="59" viewBox="0 0 177 59" fill="none" xmlns="http://www.w3.org/2000/svg">
    <g clip-path="url(#clip0_1_28)">
        <path d="M62.8463 22.5227C64.9663 25.7406 65.9563 29.5588 65.6638 33.3882C65.3711 37.2176 63.812 40.8453 61.2271 43.7117L49.621 35.7457L45.6136 32.9971L62.1147 22.9705L62.8463 22.5227Z" fill="url(#paint0_linear_1_28)"/>
        <path d="M20.844 9.75751L19.4565 18.4316C18.9057 17.8309 18.1942 17.3964 17.4043 17.1785C16.6144 16.9605 15.7782 16.9679 14.9924 17.1997C14.2065 17.4315 13.5029 17.8783 12.963 18.4885C12.423 19.0988 12.0685 19.8476 11.9406 20.6485C11.8127 21.4495 11.9165 22.2698 12.24 23.0149C12.5635 23.76 13.0935 24.3994 13.7689 24.8594C14.4443 25.3193 15.2374 25.5811 16.057 25.6143C16.8764 25.6476 17.6886 25.4511 18.3998 25.0474L14.3291 50.4749C11.319 48.9295 8.75521 47.4443 7.68061 46.3995L5.84841 44.6162C4.15577 42.984 2.81061 41.0334 1.89215 38.8793C0.973709 36.7253 0.500549 34.4113 0.500549 32.0735C0.500549 29.736 0.973709 27.4219 1.89215 25.2679C2.81061 23.1138 4.15577 21.1632 5.84841 19.5311L15.8792 9.78243L20.844 9.75751Z" fill="url(#paint1_linear_1_28)"/>
        <path d="M20.844 9.75751L19.4565 18.4316C18.9057 17.8309 18.1942 17.3964 17.4043 17.1785C16.6144 16.9605 15.7782 16.9679 14.9924 17.1997C14.2065 17.4315 13.5029 17.8783 12.963 18.4885C12.423 19.0988 12.0685 19.8476 11.9406 20.6485C11.8127 21.4495 11.9165 22.2698 12.24 23.0149C12.5635 23.76 13.0935 24.3994 13.7689 24.8594C14.4443 25.3193 15.2374 25.5811 16.057 25.6143C16.8764 25.6476 17.6886 25.4511 18.3998 25.0474L14.3291 50.4749C11.319 48.9295 8.75521 47.4443 7.68061 46.3995L5.84841 44.6162C4.15577 42.984 2.81061 41.0334 1.89215 38.8793C0.973709 36.7253 0.500549 34.4113 0.500549 32.0735C0.500549 29.736 0.973709 27.4219 1.89215 25.2679C2.81061 23.1138 4.15577 21.1632 5.84841 19.5311L15.8792 9.78243L20.844 9.75751Z" fill="url(#paint2_linear_1_28)"/>
        <path d="M29.4829 30.017V56.3413L28.7244 57.116C26.363 56.1235 19.6489 53.2054 14.3295 50.4745L18.3978 25.0446C18.6207 24.9184 18.8318 24.7729 19.0286 24.6098L28.0871 28.1114C28.8935 28.4217 29.4829 29.1818 29.4829 30.017Z" fill="url(#paint3_linear_1_28)"/>
        <path d="M62.7287 22.341L62.1149 22.9702L49.6237 35.7487L36.7277 48.9314V30.0168C36.7277 29.1722 37.3161 28.4215 38.1233 28.1113L47.1908 24.6097C47.9714 25.2618 48.9611 25.6179 49.9829 25.6143C50.821 25.616 51.6414 25.3781 52.3459 24.9296C53.0505 24.481 53.6088 23.8409 53.954 23.086C54.2993 22.3311 54.4165 21.4936 54.2917 20.6744C54.167 19.8552 53.8055 19.0891 53.2508 18.4681C52.696 17.8473 51.9716 17.398 51.1648 17.1744C50.3579 16.951 49.503 16.9626 48.7027 17.2082C47.9023 17.4536 47.1909 17.9225 46.6537 18.5584C46.1166 19.1942 45.7766 19.9699 45.6748 20.7923L36.8536 24.1999C35.6616 24.6617 34.3947 24.9068 33.1145 24.9231C31.8347 24.902 30.5688 24.6572 29.3753 24.1999L20.5541 20.7923C20.4455 19.9116 20.0619 19.0863 19.4568 18.431L20.8443 9.7594L28.5982 11.0292C28.1619 11.7551 27.9114 12.5753 27.8683 13.4187C27.8252 14.262 27.9909 15.103 28.351 15.8687C28.7112 16.6343 29.2547 17.3017 29.9346 17.8126C30.6146 18.3235 31.4105 18.6627 32.2529 18.8008C33.0955 18.9388 33.9594 18.8715 34.7697 18.6048C35.58 18.3379 36.3123 17.8796 36.903 17.2697C37.4935 16.6598 37.9248 15.9165 38.1591 15.1046C38.3934 14.2926 38.4239 13.4362 38.2477 12.61L56.2883 15.5652L60.3705 19.5329C61.2515 20.3868 62.0418 21.3278 62.7287 22.341Z" fill="url(#paint4_linear_1_28)"/>
        <path d="M29.4829 30.017V56.3413L28.7244 57.116C26.363 56.1235 19.6489 53.2054 14.3295 50.4745L18.3978 25.0446C18.6207 24.9184 18.8318 24.7729 19.0286 24.6098L28.0871 28.1114C28.8935 28.4217 29.4829 29.1818 29.4829 30.017Z" fill="url(#paint5_linear_1_28)"/>
        <path d="M62.7287 22.341L62.1149 22.9702L49.6237 35.7487L36.7277 48.9314V30.0168C36.7277 29.1722 37.3161 28.4215 38.1233 28.1113L47.1908 24.6097C47.9714 25.2618 48.9611 25.6179 49.9829 25.6143C50.821 25.616 51.6414 25.3781 52.3459 24.9296C53.0505 24.481 53.6088 23.8409 53.954 23.086C54.2993 22.3311 54.4165 21.4936 54.2917 20.6744C54.167 19.8552 53.8055 19.0891 53.2508 18.4681C52.696 17.8473 51.9716 17.398 51.1648 17.1744C50.3579 16.951 49.503 16.9626 48.7027 17.2082C47.9023 17.4536 47.1909 17.9225 46.6537 18.5584C46.1166 19.1942 45.7766 19.9699 45.6748 20.7923L36.8536 24.1999C35.6616 24.6617 34.3947 24.9068 33.1145 24.9231C31.8347 24.902 30.5688 24.6572 29.3753 24.1999L20.5541 20.7923C20.4455 19.9116 20.0619 19.0863 19.4568 18.431L20.8443 9.7594L28.5982 11.0292C28.1619 11.7551 27.9114 12.5753 27.8683 13.4187C27.8252 14.262 27.9909 15.103 28.351 15.8687C28.7112 16.6343 29.2547 17.3017 29.9346 17.8126C30.6146 18.3235 31.4105 18.6627 32.2529 18.8008C33.0955 18.9388 33.9594 18.8715 34.7697 18.6048C35.58 18.3379 36.3123 17.8796 36.903 17.2697C37.4935 16.6598 37.9248 15.9165 38.1591 15.1046C38.3934 14.2926 38.4239 13.4362 38.2477 12.61L56.2883 15.5652L60.3705 19.5329C61.2515 20.3868 62.0418 21.3278 62.7287 22.341Z" fill="url(#paint6_linear_1_28)"/>
        <path d="M56.2885 15.5628L38.2479 12.6076C38.0291 11.5857 37.5038 10.6528 36.7404 9.93081C35.977 9.20878 35.0111 8.7312 33.969 8.56046C32.9267 8.38972 31.8566 8.53375 30.8985 8.97375C29.9403 9.41375 29.1388 10.1292 28.5984 11.0268L20.8445 9.75694L46.722 6.26578L56.2885 15.5628Z" fill="url(#paint7_linear_1_28)"/>
        <path d="M56.2885 15.5628L38.2479 12.6076C38.0291 11.5857 37.5038 10.6528 36.7404 9.93081C35.977 9.20878 35.0111 8.7312 33.969 8.56046C32.9267 8.38972 31.8566 8.53375 30.8985 8.97375C29.9403 9.41375 29.1388 10.1292 28.5984 11.0268L20.8445 9.75694L46.722 6.26578L56.2885 15.5628Z" fill="url(#paint8_linear_1_28)"/>
        <path d="M28.7243 57.1169L29.4826 56.3416V57.4314C29.3461 57.3768 29.0868 57.2698 28.7243 57.1169Z" fill="url(#paint9_linear_1_28)"/>
        <path d="M61.2306 43.7123C60.9537 44.0208 60.6637 44.3223 60.3608 44.6164L58.5287 46.3998C55.2617 49.5735 38.2558 56.821 36.7277 57.431V48.9322L49.6212 35.7462L62.115 22.971L62.731 22.3417C62.7726 22.4019 62.8123 22.4622 62.8522 22.5234C64.9719 25.7414 65.9615 29.5598 65.6684 33.3892C65.3754 37.2185 63.8159 40.8462 61.2306 43.7123Z" fill="url(#paint10_linear_1_28)"/>
        <path d="M28.7243 57.1169L29.4826 56.3416V57.4314C29.3461 57.3768 29.0868 57.2698 28.7243 57.1169Z" fill="url(#paint11_linear_1_28)"/>
        <path d="M61.2306 43.7123C60.9537 44.0208 60.6637 44.3223 60.3608 44.6164L58.5287 46.3998C55.2617 49.5735 38.2558 56.821 36.7277 57.431V48.9322L49.6212 35.7462L62.115 22.971L62.731 22.3417C62.7726 22.4019 62.8123 22.4622 62.8522 22.5234C64.9719 25.7414 65.9615 29.5598 65.6684 33.3892C65.3754 37.2185 63.8159 40.8462 61.2306 43.7123Z" fill="url(#paint12_linear_1_28)"/>
        <path d="M20.8437 9.7569L15.8787 9.78181L19.6919 6.07526L20.8437 9.7569Z" fill="url(#paint13_linear_1_28)"/>
        <path d="M20.8437 9.7569L15.8787 9.78181L19.6919 6.07526L20.8437 9.7569Z" fill="url(#paint14_linear_1_28)"/>
        <path d="M46.7213 6.2659L20.8439 9.75708L19.6921 6.07543L20.3757 5.4116C23.8987 1.99437 28.4945 0.153944 33.1092 0.10733C37.7238 0.153944 42.3197 1.99437 45.8427 5.4116L46.7213 6.2659Z" fill="url(#paint15_linear_1_28)"/>
        <path d="M46.7213 6.2659L20.8439 9.75708L19.6921 6.07543L20.3757 5.4116C23.8987 1.99437 28.4945 0.153944 33.1092 0.10733C37.7238 0.153944 42.3197 1.99437 45.8427 5.4116L46.7213 6.2659Z" fill="url(#paint16_linear_1_28)"/>
        <path d="M86.9961 11.3741H83.9674V30.0564H86.9961V11.3741Z" fill="#323232"/>
        <path d="M94.8677 30.0556H97.8974V14.0118L103.48 14.04V11.3741H89.3225V14.04L94.8677 14.0118V30.0556Z" fill="#323232"/>
        <path d="M115.502 23.3423H118.806C119.739 23.3538 120.666 23.1947 121.54 22.8729C122.311 22.5857 123.015 22.1484 123.611 21.587C124.181 21.0467 124.63 20.3943 124.93 19.6719C125.247 18.923 125.406 18.1178 125.396 17.3059C125.402 16.5061 125.254 15.7124 124.958 14.968C124.675 14.2592 124.245 13.6167 123.696 13.0818C123.121 12.5278 122.435 12.099 121.682 11.8232C120.885 11.5138 119.983 11.3635 118.977 11.3635H112.474V30.0457H115.502L115.502 23.3423ZM115.492 14.039H118.968C120.078 14.039 120.914 14.3299 121.493 14.923C122.073 15.5161 122.366 16.3125 122.366 17.3075C122.366 18.3587 122.053 19.1849 121.417 19.7861C120.78 20.3872 119.917 20.687 118.796 20.687H115.492V14.039Z" fill="#323232"/>
        <path d="M135.1 11.3741H132.011L125.117 30.0556H128.26L129.886 25.4561H137.202L138.848 30.0556H141.992L135.1 11.3741ZM130.827 22.874L132.232 18.9142L133.524 14.4828H133.581L134.872 18.9142L136.268 22.8756L130.827 22.874Z" fill="#323232"/>
        <path d="M156.733 20.4609C157.483 19.5037 157.853 18.3857 157.853 17.0902C157.861 16.3241 157.711 15.5642 157.415 14.8561C157.125 14.1731 156.695 13.5572 156.152 13.047C155.562 12.5034 154.862 12.0876 154.101 11.8262C153.212 11.5218 152.277 11.3725 151.337 11.385H144.414V30.0648H147.443V22.9209H150.73L154.935 30.0648H158.183L153.729 22.4701C154.984 22.0755 155.98 21.4092 156.733 20.4609ZM147.446 20.2447V14.0395H151.348C152.506 14.0395 153.37 14.3209 153.949 14.8754C154.528 15.4299 154.823 16.1709 154.823 17.0902C154.823 18.0482 154.519 18.8182 153.883 19.3903C153.247 19.9626 152.383 20.2447 151.262 20.2447H147.446Z" fill="#323232"/>
        <path d="M164.127 11.3741H161.099V30.0564H164.127V11.3741Z" fill="#323232"/>
        <path d="M176.158 30.055L167.973 20.132L175.911 11.3824H172.436L165.2 19.3339V21.0522L172.569 30.055H176.158Z" fill="#323232"/>
        <path d="M85.9141 41.2364C84.7558 41.152 84.433 40.8233 84.433 40.2414C84.433 39.3494 85.0882 39.1051 86.1328 39.1051C86.6204 39.1051 87.3001 39.1991 87.5658 39.3212L87.7373 38.786C87.2113 38.6428 86.6686 38.5671 86.123 38.561C84.6891 38.561 83.7779 39.011 83.7779 40.2486C83.7779 41.3095 84.4136 41.6848 85.819 41.7884C86.9773 41.8729 87.3001 42.3327 87.3001 42.9056C87.3001 43.7976 86.588 44.0412 85.5532 44.0412C85.0972 44.0412 84.433 43.9608 84.0721 43.8258L83.9007 44.361C84.4416 44.5125 85.0006 44.5914 85.5629 44.5958C86.9871 44.5958 87.9365 44.1353 87.9365 42.908C87.9365 41.8464 87.3195 41.3489 85.9141 41.2364Z" fill="#323232"/>
        <path d="M93.2065 38.7107H88.5351V39.2089H90.5673V44.4938H91.1842V39.2089H93.2065V38.7107Z" fill="#323232"/>
        <path d="M94.9833 38.7107C94.1761 40.6443 93.4543 42.5595 92.7797 44.4931H93.378C93.5779 43.883 93.7771 43.3012 93.986 42.7097H96.831C97.0683 43.3382 97.3187 43.9393 97.5341 44.4931H98.2177C97.5056 42.8857 96.679 40.6627 96.0149 38.7107H94.9833ZM94.1761 42.2123C94.5371 41.2164 94.9451 40.2127 95.363 39.1799H95.619C95.9442 40.1845 96.3026 41.2357 96.6635 42.2123H94.1761Z" fill="#323232"/>
        <path d="M101.715 41.9122C103.006 41.9122 103.405 41.1985 103.405 40.3853C103.405 39.5012 103.044 38.7144 101.744 38.7144H99.1319V44.4968H99.7399V41.9869H100.87C101.306 41.9869 102.075 42.8791 103.006 44.4936H103.766C102.873 43.0294 102.133 42.0528 101.715 41.9122ZM99.7301 41.4614V39.2111L101.744 39.2014C102.379 39.2014 102.73 39.6241 102.73 40.3747C102.73 41.0418 102.379 41.4638 101.696 41.4638L99.7301 41.4614Z" fill="#323232"/>
        <path d="M103.993 39.2089H106.025V44.4938H106.642L106.633 39.2089H108.656V38.7107H103.993V39.2089Z" fill="#323232"/>
        <path d="M112.292 43.4149V38.4956H111.751V43.443C111.751 44.053 111.931 44.3351 112.282 44.6629L112.699 44.3157C112.396 44.0152 112.301 43.8183 112.301 43.4149H112.292Z" fill="#323232"/>
        <path d="M115.425 40.1946C114.125 40.1946 113.508 40.6769 113.508 42.3821C113.508 44.0875 114.115 44.6164 115.425 44.6164C116.736 44.6164 117.353 44.1004 117.353 42.3821C117.353 40.664 116.745 40.1946 115.425 40.1946ZM115.435 44.119C114.438 44.119 114.115 43.7621 114.115 42.4007C114.115 40.9645 114.44 40.6832 115.435 40.692C116.43 40.7009 116.764 40.9742 116.764 42.4007C116.764 43.7621 116.432 44.119 115.438 44.119H115.435Z" fill="#323232"/>
        <path d="M120.457 40.7114C120.813 40.704 121.166 40.7711 121.493 40.9083L121.673 40.4011C121.284 40.2733 120.877 40.2037 120.467 40.1946C119.157 40.1946 118.416 40.6769 118.416 42.3821C118.416 44.0875 119.148 44.6164 120.467 44.6164C120.88 44.6101 121.289 44.5307 121.673 44.3818L121.493 43.8842C121.166 44.0241 120.814 44.0976 120.457 44.1004C119.471 44.1004 119.015 43.7621 119.015 42.4007C119.015 40.9742 119.471 40.7114 120.457 40.7114Z" fill="#323232"/>
        <path d="M123.943 40.1751C123.467 40.1788 122.994 40.2484 122.538 40.3817L122.7 40.8888C123.033 40.7473 123.513 40.691 123.92 40.691C124.906 40.691 125.172 40.9072 125.172 41.9399C124.777 41.8492 124.372 41.8049 123.967 41.8081C123.017 41.8081 122.286 42.0058 122.286 43.1977C122.286 44.2779 122.789 44.6057 124.005 44.6057C124.536 44.6057 125.258 44.4844 125.712 44.2779V41.7993C125.709 40.532 125.177 40.1751 123.943 40.1751ZM125.167 43.921C124.801 44.0446 124.416 44.1079 124.029 44.1083C123.146 44.1083 122.899 43.986 122.899 43.151C122.899 42.3812 123.184 42.2871 124.029 42.2871C124.412 42.2823 124.793 42.32 125.167 42.3996V43.921Z" fill="#323232"/>
        <path d="M127.532 38.4956H126.982V43.443C126.982 44.053 127.162 44.3351 127.513 44.6629L127.93 44.3157C127.626 44.0152 127.531 43.8183 127.531 43.4149L127.532 38.4956Z" fill="#323232"/>
        <path d="M136.609 41.1608H136.049C136.048 41.7294 135.876 42.2847 135.556 42.7569C134.816 41.7121 134.398 41.443 133.979 41.3954C135.037 41.3023 135.223 40.6633 135.223 39.9779C135.223 39.0487 134.672 38.5698 133.382 38.5698C132.091 38.5698 131.54 39.0953 131.54 40.0252C131.54 40.7107 131.587 41.3208 132.642 41.4148C131.529 41.4614 131.131 42.1654 131.131 42.9538C131.131 44.2398 131.853 44.6061 133.211 44.6061C134.313 44.6061 134.778 44.3152 135.5 43.6305C135.679 43.8934 135.869 44.1843 136.04 44.4937H136.724C136.42 43.9962 136.155 43.5646 135.889 43.1886C136.354 42.5978 136.629 41.8745 136.609 41.1608ZM132.176 40.0501C132.176 39.3557 132.489 39.0737 133.391 39.0737C134.292 39.0737 134.626 39.3646 134.626 40.0598C134.626 40.8297 134.161 41.1488 133.324 41.1488C132.489 41.1488 132.176 40.8233 132.176 40.0501ZM133.22 44.1054C132.109 44.1054 131.786 43.7679 131.786 42.8855C131.786 41.9653 132.28 41.6366 133.305 41.6366C133.999 41.6366 134.55 42.2185 135.223 43.195C134.588 43.8837 134.207 44.1087 133.22 44.1087V44.1054Z" fill="#323232"/>
        <path d="M142.24 41.8742H143.769V43.9582C143.384 44.05 142.989 44.0976 142.593 44.0996C141.111 44.0996 140.56 43.6768 140.56 41.5649C140.56 39.4528 141.111 39.1144 142.593 39.1144C143.048 39.1144 143.674 39.1988 144.026 39.3298L144.216 38.8043C143.683 38.6602 143.135 38.5844 142.583 38.5792C140.769 38.5792 139.905 39.1892 139.905 41.5528C139.905 43.9164 140.769 44.6132 142.583 44.6132C143.105 44.6132 143.911 44.5666 144.371 44.4252V41.3953H142.244L142.24 41.8742Z" fill="#323232"/>
        <path d="M148.241 38.5698C146.427 38.5698 145.593 39.2175 145.593 41.5739C145.593 43.968 146.418 44.6158 148.241 44.6061C150.064 44.5966 150.9 43.968 150.9 41.5739C150.9 39.2175 150.065 38.5698 148.241 38.5698ZM148.231 44.0903C146.751 44.0903 146.237 43.608 146.237 41.5932C146.237 39.4715 146.751 39.0769 148.231 39.0769C149.732 39.0769 150.254 39.4715 150.254 41.5932C150.254 43.6112 149.732 44.0903 148.231 44.0903Z" fill="#323232"/>
        <path d="M157.985 40.513C157.529 40.3065 156.788 40.1852 156.277 40.1852C154.967 40.1852 154.36 40.6633 154.36 42.3719C154.36 44.0806 154.958 44.6061 156.277 44.6061C156.885 44.6061 157.237 44.4277 157.445 44.2589C157.445 45.3761 156.885 45.6582 155.901 45.6582C155.597 45.6582 154.99 45.5546 154.696 45.417L154.533 45.933C154.847 46.0648 155.54 46.1741 155.901 46.1741C157.22 46.1741 157.999 45.7329 157.999 44.1842H157.989L157.985 40.513ZM157.453 43.4987C157.453 43.8933 156.911 44.0999 156.285 44.0999C155.288 44.0999 154.964 43.7614 154.964 42.4C154.964 40.9639 155.29 40.701 156.285 40.701C156.681 40.6979 157.075 40.7582 157.453 40.8795V43.4987Z" fill="#323232"/>
        <path d="M159.82 38.4956H159.27V43.443C159.27 44.053 159.45 44.3351 159.801 44.6629L160.217 44.3157C159.914 44.0152 159.82 43.8183 159.82 43.4149V38.4956Z" fill="#323232"/>
        <path d="M162.941 40.1946C161.63 40.1946 161.022 40.6769 161.022 42.3821C161.022 44.0875 161.63 44.6164 162.941 44.6164C164.251 44.6164 164.868 44.1004 164.868 42.3821C164.868 40.664 164.26 40.1946 162.941 40.1946ZM162.95 44.119C161.953 44.119 161.63 43.7621 161.63 42.4007C161.63 40.9645 161.956 40.6832 162.95 40.692C163.944 40.7009 164.28 40.9742 164.28 42.4007C164.28 43.7621 163.947 44.119 162.95 44.119Z" fill="#323232"/>
        <path d="M167.764 40.1943C167.156 40.1943 166.805 40.3631 166.595 40.5326V38.505H166.046V44.2786C166.5 44.4852 167.241 44.6065 167.752 44.6065C169.062 44.6065 169.671 44.1242 169.671 42.41C169.671 40.6957 169.074 40.1854 167.764 40.1943ZM167.753 44.1001C167.357 44.1032 166.963 44.0431 166.586 43.9218V41.2929C166.586 40.908 167.127 40.7014 167.753 40.7014C168.751 40.7014 169.074 41.0397 169.074 42.4004C169.074 43.8181 168.742 44.1001 167.753 44.1001Z" fill="#323232"/>
        <path d="M172.35 40.1751C171.874 40.1788 171.402 40.2484 170.944 40.3817L171.107 40.8888C171.438 40.7473 171.92 40.691 172.323 40.691C173.31 40.691 173.575 40.9072 173.575 41.9399C173.181 41.8492 172.776 41.8051 172.369 41.8081C171.42 41.8081 170.689 42.0058 170.689 43.1977C170.689 44.2779 171.192 44.6057 172.407 44.6057C172.94 44.6057 173.661 44.4844 174.115 44.2779V41.7993C174.116 40.532 173.583 40.1751 172.35 40.1751ZM173.575 43.921C173.208 44.0445 172.824 44.1077 172.437 44.1083C171.554 44.1083 171.307 43.986 171.307 43.151C171.307 42.3812 171.592 42.2871 172.437 42.2871C172.819 42.2824 173.202 42.3202 173.575 42.3996V43.921Z" fill="#323232"/>
        <path d="M175.939 43.4149V38.4956H175.389V43.443C175.389 44.053 175.569 44.3351 175.921 44.6629L176.337 44.3157C176.034 44.0152 175.939 43.8183 175.939 43.4149Z" fill="#323232"/>
    </g>
    <defs>
        <linearGradient id="paint0_linear_1_28" x1="49.921" y1="41.8166" x2="72.4916" y2="18.988" gradientUnits="userSpaceOnUse">
            <stop stop-color="#A9D906"/>
            <stop offset="1" stop-color="#93CF07"/>
        </linearGradient>
        <linearGradient id="paint1_linear_1_28" x1="-12.5637" y1="57.3987" x2="34.0103" y2="10.2923" gradientUnits="userSpaceOnUse">
            <stop stop-color="#86C804"/>
            <stop offset="1" stop-color="#B3DF07"/>
        </linearGradient>
        <linearGradient id="paint2_linear_1_28" x1="-12.5637" y1="57.3987" x2="34.0103" y2="10.2923" gradientUnits="userSpaceOnUse">
            <stop stop-color="#86C804"/>
            <stop offset="1" stop-color="#B3DF07"/>
        </linearGradient>
        <linearGradient id="paint3_linear_1_28" x1="6.34145" y1="58.1054" x2="32.2206" y2="31.9305" gradientUnits="userSpaceOnUse">
            <stop stop-color="#83C503"/>
            <stop offset="1" stop-color="#9AD203"/>
        </linearGradient>
        <linearGradient id="paint4_linear_1_28" x1="5828.71" y1="22632.4" x2="24112.5" y2="2434.97" gradientUnits="userSpaceOnUse">
            <stop stop-color="#83C503"/>
            <stop offset="1" stop-color="#9AD203"/>
        </linearGradient>
        <linearGradient id="paint5_linear_1_28" x1="6.34145" y1="58.1054" x2="32.2206" y2="31.9305" gradientUnits="userSpaceOnUse">
            <stop stop-color="#83C503"/>
            <stop offset="1" stop-color="#9AD203"/>
        </linearGradient>
        <linearGradient id="paint6_linear_1_28" x1="5828.71" y1="22632.4" x2="24112.5" y2="2434.97" gradientUnits="userSpaceOnUse">
            <stop stop-color="#83C503"/>
            <stop offset="1" stop-color="#9AD203"/>
        </linearGradient>
        <linearGradient id="paint7_linear_1_28" x1="31.1735" y1="19.9693" x2="47.8792" y2="3.07177" gradientUnits="userSpaceOnUse">
            <stop stop-color="#B0DB03"/>
            <stop offset="1" stop-color="#9BD302"/>
        </linearGradient>
        <linearGradient id="paint8_linear_1_28" x1="31.1735" y1="19.9693" x2="47.8792" y2="3.07177" gradientUnits="userSpaceOnUse">
            <stop stop-color="#B0DB03"/>
            <stop offset="1" stop-color="#9BD302"/>
        </linearGradient>
        <linearGradient id="paint9_linear_1_28" x1="28.9868" y1="57.3768" x2="29.9167" y2="56.4373" gradientUnits="userSpaceOnUse">
            <stop stop-color="#77C205"/>
            <stop offset="1" stop-color="#8CCD05"/>
        </linearGradient>
        <linearGradient id="paint10_linear_1_28" x1="13063" y1="25177.9" x2="28946.9" y2="12054.5" gradientUnits="userSpaceOnUse">
            <stop stop-color="#77C205"/>
            <stop offset="1" stop-color="#8CCD05"/>
        </linearGradient>
        <linearGradient id="paint11_linear_1_28" x1="28.9868" y1="57.3768" x2="29.9167" y2="56.4373" gradientUnits="userSpaceOnUse">
            <stop stop-color="#77C205"/>
            <stop offset="1" stop-color="#8CCD05"/>
        </linearGradient>
        <linearGradient id="paint12_linear_1_28" x1="13063" y1="25177.9" x2="28946.9" y2="12054.5" gradientUnits="userSpaceOnUse">
            <stop stop-color="#77C205"/>
            <stop offset="1" stop-color="#8CCD05"/>
        </linearGradient>
        <linearGradient id="paint13_linear_1_28" x1="16.9379" y1="11.1762" x2="21.8167" y2="6.24162" gradientUnits="userSpaceOnUse">
            <stop stop-color="#C3EA09"/>
            <stop offset="1" stop-color="#A1D808"/>
        </linearGradient>
        <linearGradient id="paint14_linear_1_28" x1="16.9379" y1="11.1762" x2="21.8167" y2="6.24162" gradientUnits="userSpaceOnUse">
            <stop stop-color="#C3EA09"/>
            <stop offset="1" stop-color="#A1D808"/>
        </linearGradient>
        <linearGradient id="paint15_linear_1_28" x1="6147.77" y1="2423.16" x2="8182.46" y2="-3276.23" gradientUnits="userSpaceOnUse">
            <stop stop-color="#A9D906"/>
            <stop offset="1" stop-color="#93CF07"/>
        </linearGradient>
        <linearGradient id="paint16_linear_1_28" x1="6147.77" y1="2423.16" x2="8182.46" y2="-3276.23" gradientUnits="userSpaceOnUse">
            <stop stop-color="#A9D906"/>
            <stop offset="1" stop-color="#93CF07"/>
        </linearGradient>
        <clipPath id="clip0_1_28">
            <rect width="175.838" height="57.9502" fill="white" transform="translate(0.500549 0.10733)"/>
        </clipPath>
    </defs>
</svg>
